<svg width="10" height="10" viewBox="0 0 10 10" fill="none" xmlns="http://www.w3.org/2000/svg">
<path d="M4.21053 9.21054C4.21053 9.41992 4.29371 9.62073 4.44176 9.76878C4.58982 9.91684 4.79063 10 5.00001 10C5.20939 10 5.4102 9.91684 5.55825 9.76878C5.70631 9.62073 5.78948 9.41992 5.78948 9.21054V5.78948H9.21054C9.41992 5.78948 9.62073 5.70631 9.76878 5.55825C9.91684 5.4102 10 5.20939 10 5.00001C10 4.79063 9.91684 4.58982 9.76878 4.44176C9.62073 4.29371 9.41992 4.21053 9.21054 4.21053H5.78948V0.789475C5.78948 0.580093 5.70631 0.379287 5.55825 0.231232C5.4102 0.0831766 5.20939 0 5.00001 0C4.79063 0 4.58982 0.0831766 4.44176 0.231232C4.29371 0.379287 4.21053 0.580093 4.21053 0.789475V4.21053H0.789475C0.580093 4.21053 0.379287 4.29371 0.231232 4.44176C0.0831766 4.58982 0 4.79063 0 5.00001C0 5.20939 0.0831766 5.4102 0.231232 5.55825C0.379287 5.70631 0.580093 5.78948 0.789475 5.78948H4.21053V9.21054Z" fill="white"/>
</svg>
