<svg width="195" height="49" viewBox="0 0 195 49" fill="none" xmlns="http://www.w3.org/2000/svg">
<g clip-path="url(#clip0_1_116)">
<path d="M47.0514 19.146V22.818H51.3714V24.492H47.0514V28.326H51.9114V30H44.9994V17.472H51.9114V19.146H47.0514ZM58.6869 24.978L61.8909 30H59.5689L57.4269 26.634L55.4109 30H53.2689L56.4729 25.122L53.2689 20.082H55.5909L57.7329 23.448L59.7489 20.082H61.8909L58.6869 24.978ZM65.4733 21.54C65.8213 21.084 66.2953 20.7 66.8953 20.388C67.4953 20.076 68.1733 19.92 68.9293 19.92C69.7933 19.92 70.5793 20.136 71.2873 20.568C72.0073 20.988 72.5713 21.582 72.9793 22.35C73.3873 23.118 73.5913 24 73.5913 24.996C73.5913 25.992 73.3873 26.886 72.9793 27.678C72.5713 28.458 72.0073 29.07 71.2873 29.514C70.5793 29.946 69.7933 30.162 68.9293 30.162C68.1733 30.162 67.5013 30.012 66.9133 29.712C66.3253 29.4 65.8453 29.016 65.4733 28.56V34.716H63.4213V20.082H65.4733V21.54ZM71.5033 24.996C71.5033 24.312 71.3593 23.724 71.0713 23.232C70.7953 22.728 70.4233 22.35 69.9553 22.098C69.4993 21.834 69.0073 21.702 68.4793 21.702C67.9633 21.702 67.4713 21.834 67.0033 22.098C66.5473 22.362 66.1753 22.746 65.8873 23.25C65.6113 23.754 65.4733 24.348 65.4733 25.032C65.4733 25.716 65.6113 26.316 65.8873 26.832C66.1753 27.336 66.5473 27.72 67.0033 27.984C67.4713 28.248 67.9633 28.38 68.4793 28.38C69.0073 28.38 69.4993 28.248 69.9553 27.984C70.4233 27.708 70.7953 27.312 71.0713 26.796C71.3593 26.28 71.5033 25.68 71.5033 24.996ZM84.7105 24.798C84.7105 25.17 84.6865 25.506 84.6385 25.806H77.0605C77.1205 26.598 77.4145 27.234 77.9425 27.714C78.4705 28.194 79.1185 28.434 79.8865 28.434C80.9905 28.434 81.7705 27.972 82.2265 27.048H84.4405C84.1405 27.96 83.5945 28.71 82.8025 29.298C82.0225 29.874 81.0505 30.162 79.8865 30.162C78.9385 30.162 78.0865 29.952 77.3305 29.532C76.5865 29.1 75.9985 28.5 75.5665 27.732C75.1465 26.952 74.9365 26.052 74.9365 25.032C74.9365 24.012 75.1405 23.118 75.5485 22.35C75.9685 21.57 76.5505 20.97 77.2945 20.55C78.0505 20.13 78.9145 19.92 79.8865 19.92C80.8225 19.92 81.6565 20.124 82.3885 20.532C83.1205 20.94 83.6905 21.516 84.0985 22.26C84.5065 22.992 84.7105 23.838 84.7105 24.798ZM82.5685 24.15C82.5565 23.394 82.2865 22.788 81.7585 22.332C81.2305 21.876 80.5765 21.648 79.7965 21.648C79.0885 21.648 78.4825 21.876 77.9785 22.332C77.4745 22.776 77.1745 23.382 77.0785 24.15H82.5685ZM88.7819 21.522C89.0819 21.018 89.4779 20.628 89.9699 20.352C90.4739 20.064 91.0679 19.92 91.7519 19.92V22.044H91.2299C90.4259 22.044 89.8139 22.248 89.3939 22.656C88.9859 23.064 88.7819 23.772 88.7819 24.78V30H86.7299V20.082H88.7819V21.522ZM94.6821 18.768C94.3101 18.768 93.9981 18.642 93.7461 18.39C93.4941 18.138 93.3681 17.826 93.3681 17.454C93.3681 17.082 93.4941 16.77 93.7461 16.518C93.9981 16.266 94.3101 16.14 94.6821 16.14C95.0421 16.14 95.3481 16.266 95.6001 16.518C95.8521 16.77 95.9781 17.082 95.9781 17.454C95.9781 17.826 95.8521 18.138 95.6001 18.39C95.3481 18.642 95.0421 18.768 94.6821 18.768ZM95.6901 20.082V30H93.6381V20.082H95.6901ZM107.474 24.798C107.474 25.17 107.45 25.506 107.402 25.806H99.8242C99.8842 26.598 100.178 27.234 100.706 27.714C101.234 28.194 101.882 28.434 102.65 28.434C103.754 28.434 104.534 27.972 104.99 27.048H107.204C106.904 27.96 106.358 28.71 105.566 29.298C104.786 29.874 103.814 30.162 102.65 30.162C101.702 30.162 100.85 29.952 100.094 29.532C99.3502 29.1 98.7622 28.5 98.3302 27.732C97.9102 26.952 97.7002 26.052 97.7002 25.032C97.7002 24.012 97.9042 23.118 98.3122 22.35C98.7322 21.57 99.3142 20.97 100.058 20.55C100.814 20.13 101.678 19.92 102.65 19.92C103.586 19.92 104.42 20.124 105.152 20.532C105.884 20.94 106.454 21.516 106.862 22.26C107.27 22.992 107.474 23.838 107.474 24.798ZM105.332 24.15C105.32 23.394 105.05 22.788 104.522 22.332C103.994 21.876 103.34 21.648 102.56 21.648C101.852 21.648 101.246 21.876 100.742 22.332C100.238 22.776 99.9382 23.382 99.8422 24.15H105.332ZM114.498 19.92C115.278 19.92 115.974 20.082 116.586 20.406C117.21 20.73 117.696 21.21 118.044 21.846C118.392 22.482 118.566 23.25 118.566 24.15V30H116.532V24.456C116.532 23.568 116.31 22.89 115.866 22.422C115.422 21.942 114.816 21.702 114.048 21.702C113.28 21.702 112.668 21.942 112.212 22.422C111.768 22.89 111.546 23.568 111.546 24.456V30H109.494V20.082H111.546V21.216C111.882 20.808 112.308 20.49 112.824 20.262C113.352 20.034 113.91 19.92 114.498 19.92ZM120.499 25.032C120.499 24.012 120.703 23.118 121.111 22.35C121.531 21.57 122.107 20.97 122.839 20.55C123.571 20.13 124.411 19.92 125.359 19.92C126.559 19.92 127.549 20.208 128.329 20.784C129.121 21.348 129.655 22.158 129.931 23.214H127.717C127.537 22.722 127.249 22.338 126.853 22.062C126.457 21.786 125.959 21.648 125.359 21.648C124.519 21.648 123.847 21.948 123.343 22.548C122.851 23.136 122.605 23.964 122.605 25.032C122.605 26.1 122.851 26.934 123.343 27.534C123.847 28.134 124.519 28.434 125.359 28.434C126.547 28.434 127.333 27.912 127.717 26.868H129.931C129.643 27.876 129.103 28.68 128.311 29.28C127.519 29.868 126.535 30.162 125.359 30.162C124.411 30.162 123.571 29.952 122.839 29.532C122.107 29.1 121.531 28.5 121.111 27.732C120.703 26.952 120.499 26.052 120.499 25.032ZM141.066 24.798C141.066 25.17 141.042 25.506 140.994 25.806H133.416C133.476 26.598 133.77 27.234 134.298 27.714C134.826 28.194 135.474 28.434 136.242 28.434C137.346 28.434 138.126 27.972 138.582 27.048H140.796C140.496 27.96 139.95 28.71 139.158 29.298C138.378 29.874 137.406 30.162 136.242 30.162C135.294 30.162 134.442 29.952 133.686 29.532C132.942 29.1 132.354 28.5 131.922 27.732C131.502 26.952 131.292 26.052 131.292 25.032C131.292 24.012 131.496 23.118 131.904 22.35C132.324 21.57 132.906 20.97 133.65 20.55C134.406 20.13 135.27 19.92 136.242 19.92C137.178 19.92 138.012 20.124 138.744 20.532C139.476 20.94 140.046 21.516 140.454 22.26C140.862 22.992 141.066 23.838 141.066 24.798ZM138.924 24.15C138.912 23.394 138.642 22.788 138.114 22.332C137.586 21.876 136.932 21.648 136.152 21.648C135.444 21.648 134.838 21.876 134.334 22.332C133.83 22.776 133.53 23.382 133.434 24.15H138.924ZM146.685 30.162C145.905 30.162 145.203 30.024 144.579 29.748C143.967 29.46 143.481 29.076 143.121 28.596C142.761 28.104 142.569 27.558 142.545 26.958H144.669C144.705 27.378 144.903 27.732 145.263 28.02C145.635 28.296 146.097 28.434 146.649 28.434C147.225 28.434 147.669 28.326 147.981 28.11C148.305 27.882 148.467 27.594 148.467 27.246C148.467 26.874 148.287 26.598 147.927 26.418C147.579 26.238 147.021 26.04 146.253 25.824C145.509 25.62 144.903 25.422 144.435 25.23C143.967 25.038 143.559 24.744 143.211 24.348C142.875 23.952 142.707 23.43 142.707 22.782C142.707 22.254 142.863 21.774 143.175 21.342C143.487 20.898 143.931 20.55 144.507 20.298C145.095 20.046 145.767 19.92 146.523 19.92C147.651 19.92 148.557 20.208 149.241 20.784C149.937 21.348 150.309 22.122 150.357 23.106H148.305C148.269 22.662 148.089 22.308 147.765 22.044C147.441 21.78 147.003 21.648 146.451 21.648C145.911 21.648 145.497 21.75 145.209 21.954C144.921 22.158 144.777 22.428 144.777 22.764C144.777 23.028 144.873 23.25 145.065 23.43C145.257 23.61 145.491 23.754 145.767 23.862C146.043 23.958 146.451 24.084 146.991 24.24C147.711 24.432 148.299 24.63 148.755 24.834C149.223 25.026 149.625 25.314 149.961 25.698C150.297 26.082 150.471 26.592 150.483 27.228C150.483 27.792 150.327 28.296 150.015 28.74C149.703 29.184 149.259 29.532 148.683 29.784C148.119 30.036 147.453 30.162 146.685 30.162Z" fill="#A3ADB2"/>
</g>
<defs>
<clipPath id="clip0_1_116">
<rect width="195" height="49" rx="16" fill="white"/>
</clipPath>
</defs>
</svg>
