<svg width="195" height="49" viewBox="0 0 195 49" fill="none" xmlns="http://www.w3.org/2000/svg">
<g clip-path="url(#clip0_1_119)">
<path d="M35.1146 30L32.2346 24.996H30.6686V30H28.6166V17.49H32.9366C33.8966 17.49 34.7066 17.658 35.3666 17.994C36.0386 18.33 36.5366 18.78 36.8606 19.344C37.1966 19.908 37.3646 20.538 37.3646 21.234C37.3646 22.05 37.1246 22.794 36.6446 23.466C36.1766 24.126 35.4506 24.576 34.4666 24.816L37.5626 30H35.1146ZM30.6686 23.358H32.9366C33.7046 23.358 34.2806 23.166 34.6646 22.782C35.0606 22.398 35.2586 21.882 35.2586 21.234C35.2586 20.586 35.0666 20.082 34.6826 19.722C34.2986 19.35 33.7166 19.164 32.9366 19.164H30.6686V23.358ZM49.0796 24.798C49.0796 25.17 49.0556 25.506 49.0076 25.806H41.4296C41.4896 26.598 41.7836 27.234 42.3116 27.714C42.8396 28.194 43.4876 28.434 44.2556 28.434C45.3596 28.434 46.1396 27.972 46.5956 27.048H48.8096C48.5096 27.96 47.9636 28.71 47.1716 29.298C46.3916 29.874 45.4196 30.162 44.2556 30.162C43.3076 30.162 42.4556 29.952 41.6996 29.532C40.9556 29.1 40.3676 28.5 39.9356 27.732C39.5156 26.952 39.3056 26.052 39.3056 25.032C39.3056 24.012 39.5096 23.118 39.9176 22.35C40.3376 21.57 40.9196 20.97 41.6636 20.55C42.4196 20.13 43.2836 19.92 44.2556 19.92C45.1916 19.92 46.0256 20.124 46.7576 20.532C47.4896 20.94 48.0596 21.516 48.4676 22.26C48.8756 22.992 49.0796 23.838 49.0796 24.798ZM46.9376 24.15C46.9256 23.394 46.6556 22.788 46.1276 22.332C45.5996 21.876 44.9456 21.648 44.1656 21.648C43.4576 21.648 42.8516 21.876 42.3476 22.332C41.8436 22.776 41.5436 23.382 41.4476 24.15H46.9376ZM50.415 25.032C50.415 24.012 50.619 23.118 51.027 22.35C51.447 21.57 52.023 20.97 52.755 20.55C53.487 20.13 54.327 19.92 55.275 19.92C56.475 19.92 57.465 20.208 58.245 20.784C59.037 21.348 59.571 22.158 59.847 23.214H57.633C57.453 22.722 57.165 22.338 56.769 22.062C56.373 21.786 55.875 21.648 55.275 21.648C54.435 21.648 53.763 21.948 53.259 22.548C52.767 23.136 52.521 23.964 52.521 25.032C52.521 26.1 52.767 26.934 53.259 27.534C53.763 28.134 54.435 28.434 55.275 28.434C56.463 28.434 57.249 27.912 57.633 26.868H59.847C59.559 27.876 59.019 28.68 58.227 29.28C57.435 29.868 56.451 30.162 55.275 30.162C54.327 30.162 53.487 29.952 52.755 29.532C52.023 29.1 51.447 28.5 51.027 27.732C50.619 26.952 50.415 26.052 50.415 25.032ZM66.194 30.162C65.258 30.162 64.412 29.952 63.656 29.532C62.9 29.1 62.306 28.5 61.874 27.732C61.442 26.952 61.226 26.052 61.226 25.032C61.226 24.024 61.448 23.13 61.892 22.35C62.336 21.57 62.942 20.97 63.71 20.55C64.478 20.13 65.336 19.92 66.284 19.92C67.232 19.92 68.09 20.13 68.858 20.55C69.626 20.97 70.232 21.57 70.676 22.35C71.12 23.13 71.342 24.024 71.342 25.032C71.342 26.04 71.114 26.934 70.658 27.714C70.202 28.494 69.578 29.1 68.786 29.532C68.006 29.952 67.142 30.162 66.194 30.162ZM66.194 28.38C66.722 28.38 67.214 28.254 67.67 28.002C68.138 27.75 68.516 27.372 68.804 26.868C69.092 26.364 69.236 25.752 69.236 25.032C69.236 24.312 69.098 23.706 68.822 23.214C68.546 22.71 68.18 22.332 67.724 22.08C67.268 21.828 66.776 21.702 66.248 21.702C65.72 21.702 65.228 21.828 64.772 22.08C64.328 22.332 63.974 22.71 63.71 23.214C63.446 23.706 63.314 24.312 63.314 25.032C63.314 26.1 63.584 26.928 64.124 27.516C64.676 28.092 65.366 28.38 66.194 28.38ZM85.3765 19.92C86.1565 19.92 86.8525 20.082 87.4645 20.406C88.0885 20.73 88.5745 21.21 88.9225 21.846C89.2825 22.482 89.4625 23.25 89.4625 24.15V30H87.4285V24.456C87.4285 23.568 87.2065 22.89 86.7625 22.422C86.3185 21.942 85.7125 21.702 84.9445 21.702C84.1765 21.702 83.5645 21.942 83.1085 22.422C82.6645 22.89 82.4425 23.568 82.4425 24.456V30H80.4085V24.456C80.4085 23.568 80.1865 22.89 79.7425 22.422C79.2985 21.942 78.6925 21.702 77.9245 21.702C77.1565 21.702 76.5445 21.942 76.0885 22.422C75.6445 22.89 75.4225 23.568 75.4225 24.456V30H73.3705V20.082H75.4225V21.216C75.7585 20.808 76.1845 20.49 76.7005 20.262C77.2165 20.034 77.7685 19.92 78.3565 19.92C79.1485 19.92 79.8565 20.088 80.4805 20.424C81.1045 20.76 81.5845 21.246 81.9205 21.882C82.2205 21.282 82.6885 20.808 83.3245 20.46C83.9605 20.1 84.6445 19.92 85.3765 19.92ZM104.08 19.92C104.86 19.92 105.556 20.082 106.168 20.406C106.792 20.73 107.278 21.21 107.626 21.846C107.986 22.482 108.166 23.25 108.166 24.15V30H106.132V24.456C106.132 23.568 105.91 22.89 105.466 22.422C105.022 21.942 104.416 21.702 103.648 21.702C102.88 21.702 102.268 21.942 101.812 22.422C101.368 22.89 101.146 23.568 101.146 24.456V30H99.1116V24.456C99.1116 23.568 98.8896 22.89 98.4456 22.422C98.0016 21.942 97.3956 21.702 96.6276 21.702C95.8596 21.702 95.2476 21.942 94.7916 22.422C94.3476 22.89 94.1256 23.568 94.1256 24.456V30H92.0736V20.082H94.1256V21.216C94.4616 20.808 94.8876 20.49 95.4036 20.262C95.9196 20.034 96.4716 19.92 97.0596 19.92C97.8516 19.92 98.5596 20.088 99.1836 20.424C99.8076 20.76 100.288 21.246 100.624 21.882C100.924 21.282 101.392 20.808 102.028 20.46C102.664 20.1 103.348 19.92 104.08 19.92ZM119.867 24.798C119.867 25.17 119.843 25.506 119.795 25.806H112.217C112.277 26.598 112.571 27.234 113.099 27.714C113.627 28.194 114.275 28.434 115.043 28.434C116.147 28.434 116.927 27.972 117.383 27.048H119.597C119.297 27.96 118.751 28.71 117.959 29.298C117.179 29.874 116.207 30.162 115.043 30.162C114.095 30.162 113.243 29.952 112.487 29.532C111.743 29.1 111.155 28.5 110.723 27.732C110.303 26.952 110.093 26.052 110.093 25.032C110.093 24.012 110.297 23.118 110.705 22.35C111.125 21.57 111.707 20.97 112.451 20.55C113.207 20.13 114.071 19.92 115.043 19.92C115.979 19.92 116.813 20.124 117.545 20.532C118.277 20.94 118.847 21.516 119.255 22.26C119.663 22.992 119.867 23.838 119.867 24.798ZM117.725 24.15C117.713 23.394 117.443 22.788 116.915 22.332C116.387 21.876 115.733 21.648 114.953 21.648C114.245 21.648 113.639 21.876 113.135 22.332C112.631 22.776 112.331 23.382 112.235 24.15H117.725ZM126.89 19.92C127.67 19.92 128.366 20.082 128.978 20.406C129.602 20.73 130.088 21.21 130.436 21.846C130.784 22.482 130.958 23.25 130.958 24.15V30H128.924V24.456C128.924 23.568 128.702 22.89 128.258 22.422C127.814 21.942 127.208 21.702 126.44 21.702C125.672 21.702 125.06 21.942 124.604 22.422C124.16 22.89 123.938 23.568 123.938 24.456V30H121.886V20.082H123.938V21.216C124.274 20.808 124.7 20.49 125.216 20.262C125.744 20.034 126.302 19.92 126.89 19.92ZM132.892 24.996C132.892 24 133.096 23.118 133.504 22.35C133.924 21.582 134.488 20.988 135.196 20.568C135.916 20.136 136.714 19.92 137.59 19.92C138.238 19.92 138.874 20.064 139.498 20.352C140.134 20.628 140.638 21 141.01 21.468V16.68H143.08V30H141.01V28.506C140.674 28.986 140.206 29.382 139.606 29.694C139.018 30.006 138.34 30.162 137.572 30.162C136.708 30.162 135.916 29.946 135.196 29.514C134.488 29.07 133.924 28.458 133.504 27.678C133.096 26.886 132.892 25.992 132.892 24.996ZM141.01 25.032C141.01 24.348 140.866 23.754 140.578 23.25C140.302 22.746 139.936 22.362 139.48 22.098C139.024 21.834 138.532 21.702 138.004 21.702C137.476 21.702 136.984 21.834 136.528 22.098C136.072 22.35 135.7 22.728 135.412 23.232C135.136 23.724 134.998 24.312 134.998 24.996C134.998 25.68 135.136 26.28 135.412 26.796C135.7 27.312 136.072 27.708 136.528 27.984C136.996 28.248 137.488 28.38 138.004 28.38C138.532 28.38 139.024 28.248 139.48 27.984C139.936 27.72 140.302 27.336 140.578 26.832C140.866 26.316 141.01 25.716 141.01 25.032ZM154.865 24.798C154.865 25.17 154.841 25.506 154.793 25.806H147.215C147.275 26.598 147.569 27.234 148.097 27.714C148.625 28.194 149.273 28.434 150.041 28.434C151.145 28.434 151.925 27.972 152.381 27.048H154.595C154.295 27.96 153.749 28.71 152.957 29.298C152.177 29.874 151.205 30.162 150.041 30.162C149.093 30.162 148.241 29.952 147.485 29.532C146.741 29.1 146.153 28.5 145.721 27.732C145.301 26.952 145.091 26.052 145.091 25.032C145.091 24.012 145.295 23.118 145.703 22.35C146.123 21.57 146.705 20.97 147.449 20.55C148.205 20.13 149.069 19.92 150.041 19.92C150.977 19.92 151.811 20.124 152.543 20.532C153.275 20.94 153.845 21.516 154.253 22.26C154.661 22.992 154.865 23.838 154.865 24.798ZM152.723 24.15C152.711 23.394 152.441 22.788 151.913 22.332C151.385 21.876 150.731 21.648 149.951 21.648C149.243 21.648 148.637 21.876 148.133 22.332C147.629 22.776 147.329 23.382 147.233 24.15H152.723ZM156.2 24.996C156.2 24 156.404 23.118 156.812 22.35C157.232 21.582 157.796 20.988 158.504 20.568C159.224 20.136 160.022 19.92 160.898 19.92C161.546 19.92 162.182 20.064 162.806 20.352C163.442 20.628 163.946 21 164.318 21.468V16.68H166.388V30H164.318V28.506C163.982 28.986 163.514 29.382 162.914 29.694C162.326 30.006 161.648 30.162 160.88 30.162C160.016 30.162 159.224 29.946 158.504 29.514C157.796 29.07 157.232 28.458 156.812 27.678C156.404 26.886 156.2 25.992 156.2 24.996ZM164.318 25.032C164.318 24.348 164.174 23.754 163.886 23.25C163.61 22.746 163.244 22.362 162.788 22.098C162.332 21.834 161.84 21.702 161.312 21.702C160.784 21.702 160.292 21.834 159.836 22.098C159.38 22.35 159.008 22.728 158.72 23.232C158.444 23.724 158.306 24.312 158.306 24.996C158.306 25.68 158.444 26.28 158.72 26.796C159.008 27.312 159.38 27.708 159.836 27.984C160.304 28.248 160.796 28.38 161.312 28.38C161.84 28.38 162.332 28.248 162.788 27.984C163.244 27.72 163.61 27.336 163.886 26.832C164.174 26.316 164.318 25.716 164.318 25.032Z" fill="#A3ADB2"/>
</g>
<defs>
<clipPath id="clip0_1_119">
<rect width="195" height="49" rx="16" fill="white"/>
</clipPath>
</defs>
</svg>
