<svg width="195" height="49" viewBox="0 0 195 49" fill="none" xmlns="http://www.w3.org/2000/svg">
<path d="M63.2553 27.444H58.0173L57.1173 30H54.9753L59.4573 17.472H61.8333L66.3153 30H64.1553L63.2553 27.444ZM62.6793 25.77L60.6453 19.956L58.5933 25.77H62.6793ZM70.3161 21.558C70.6641 21.078 71.1381 20.688 71.7381 20.388C72.3501 20.076 73.0281 19.92 73.7721 19.92C74.6481 19.92 75.4401 20.13 76.1481 20.55C76.8561 20.97 77.4141 21.57 77.8221 22.35C78.2301 23.118 78.4341 24 78.4341 24.996C78.4341 25.992 78.2301 26.886 77.8221 27.678C77.4141 28.458 76.8501 29.07 76.1301 29.514C75.4221 29.946 74.6361 30.162 73.7721 30.162C73.0041 30.162 72.3201 30.012 71.7201 29.712C71.1321 29.412 70.6641 29.028 70.3161 28.56V30H68.2641V16.68H70.3161V21.558ZM76.3461 24.996C76.3461 24.312 76.2021 23.724 75.9141 23.232C75.6381 22.728 75.2661 22.35 74.7981 22.098C74.3421 21.834 73.8501 21.702 73.3221 21.702C72.8061 21.702 72.3141 21.834 71.8461 22.098C71.3901 22.362 71.0181 22.746 70.7301 23.25C70.4541 23.754 70.3161 24.348 70.3161 25.032C70.3161 25.716 70.4541 26.316 70.7301 26.832C71.0181 27.336 71.3901 27.72 71.8461 27.984C72.3141 28.248 72.8061 28.38 73.3221 28.38C73.8501 28.38 74.3421 28.248 74.7981 27.984C75.2661 27.708 75.6381 27.312 75.9141 26.796C76.2021 26.28 76.3461 25.68 76.3461 24.996ZM84.7653 30.162C83.8293 30.162 82.9833 29.952 82.2273 29.532C81.4713 29.1 80.8773 28.5 80.4453 27.732C80.0133 26.952 79.7973 26.052 79.7973 25.032C79.7973 24.024 80.0193 23.13 80.4633 22.35C80.9073 21.57 81.5133 20.97 82.2813 20.55C83.0493 20.13 83.9073 19.92 84.8553 19.92C85.8033 19.92 86.6613 20.13 87.4293 20.55C88.1973 20.97 88.8033 21.57 89.2473 22.35C89.6913 23.13 89.9133 24.024 89.9133 25.032C89.9133 26.04 89.6853 26.934 89.2293 27.714C88.7733 28.494 88.1493 29.1 87.3573 29.532C86.5773 29.952 85.7133 30.162 84.7653 30.162ZM84.7653 28.38C85.2933 28.38 85.7853 28.254 86.2413 28.002C86.7093 27.75 87.0873 27.372 87.3753 26.868C87.6633 26.364 87.8073 25.752 87.8073 25.032C87.8073 24.312 87.6693 23.706 87.3933 23.214C87.1173 22.71 86.7513 22.332 86.2953 22.08C85.8393 21.828 85.3473 21.702 84.8193 21.702C84.2913 21.702 83.7993 21.828 83.3433 22.08C82.8993 22.332 82.5453 22.71 82.2813 23.214C82.0173 23.706 81.8853 24.312 81.8853 25.032C81.8853 26.1 82.1553 26.928 82.6953 27.516C83.2473 28.092 83.9373 28.38 84.7653 28.38ZM100.924 20.082V30H98.8718V28.83C98.5478 29.238 98.1218 29.562 97.5938 29.802C97.0778 30.03 96.5258 30.144 95.9378 30.144C95.1578 30.144 94.4558 29.982 93.8318 29.658C93.2198 29.334 92.7338 28.854 92.3738 28.218C92.0258 27.582 91.8518 26.814 91.8518 25.914V20.082H93.8858V25.608C93.8858 26.496 94.1078 27.18 94.5518 27.66C94.9958 28.128 95.6018 28.362 96.3698 28.362C97.1378 28.362 97.7438 28.128 98.1878 27.66C98.6438 27.18 98.8718 26.496 98.8718 25.608V20.082H100.924ZM106.025 21.756V27.246C106.025 27.618 106.109 27.888 106.277 28.056C106.457 28.212 106.757 28.29 107.177 28.29H108.437V30H106.817C105.893 30 105.185 29.784 104.693 29.352C104.201 28.92 103.955 28.218 103.955 27.246V21.756H102.785V20.082H103.955V17.616H106.025V20.082H108.437V21.756H106.025ZM128.18 17.49V30H126.128V21.432L122.312 30H120.89L117.056 21.432V30H115.004V17.49H117.218L121.61 27.3L125.984 17.49H128.18ZM139.967 24.798C139.967 25.17 139.943 25.506 139.895 25.806H132.317C132.377 26.598 132.671 27.234 133.199 27.714C133.727 28.194 134.375 28.434 135.143 28.434C136.247 28.434 137.027 27.972 137.483 27.048H139.697C139.397 27.96 138.851 28.71 138.059 29.298C137.279 29.874 136.307 30.162 135.143 30.162C134.195 30.162 133.343 29.952 132.587 29.532C131.843 29.1 131.255 28.5 130.823 27.732C130.403 26.952 130.193 26.052 130.193 25.032C130.193 24.012 130.397 23.118 130.805 22.35C131.225 21.57 131.807 20.97 132.551 20.55C133.307 20.13 134.171 19.92 135.143 19.92C136.079 19.92 136.913 20.124 137.645 20.532C138.377 20.94 138.947 21.516 139.355 22.26C139.763 22.992 139.967 23.838 139.967 24.798ZM137.825 24.15C137.813 23.394 137.543 22.788 137.015 22.332C136.487 21.876 135.833 21.648 135.053 21.648C134.345 21.648 133.739 21.876 133.235 22.332C132.731 22.776 132.431 23.382 132.335 24.15H137.825Z" fill="white"/>
</svg>
